<svg xmlns="http://www.w3.org/2000/svg" width="13.436" height="15.183" viewBox="0 0 13.436 15.183"><defs><style>.a{fill:#00cad1;}</style></defs><path class="a" d="M276.251,227.479h12.3a.559.559,0,1,1,0,1.118h-12.3a.559.559,0,1,1,0-1.118Zm8.385-11.506.792-.792,2.072,2.073-.79.79Zm-6.708,5.59.792-.792,2.534,2.536-.79.79Zm1.33,3.3,8.752-8.752-1.581-1.581-8.754,8.752-.231,1.813Zm-2.642-2.1,9.022-9.022a1.118,1.118,0,0,1,1.582,0l1.581,1.581a1.118,1.118,0,0,1,0,1.581l-9.022,9.022-3.627.464Z" transform="translate(-275.692 -213.414)"/></svg>