<svg xmlns="http://www.w3.org/2000/svg" width="23.495" height="20.139" viewBox="0 0 23.495 20.139"><defs><style>.a{fill:#9c27b0;}.b{fill:#4a148c;}.c{fill:#9261cb;}.d{fill:#e1bee7;}.e{fill:#673ab7;}</style></defs><path class="a" d="M23.567,6.857v15.1H3.429V18.6L13.5,11.556l6.713-4.7Z" transform="translate(-0.072 -1.822)"/><path class="b" d="M23.783,6.857v15.1H13.714v-10.4l6.713-4.7Z" transform="translate(-0.289 -1.822)"/><path class="a" d="M20.355,3.428V6.785l-1.4.981H10.291V3.428Z" transform="translate(-0.217 -1.749)"/><path class="c" d="M20.139,6.749V18.5H0V1.714H8.377l1.691,1.68,1.679,1.668,1.7,1.686Z" transform="translate(0 -1.714)"/><path class="d" d="M2.68,4.44H7.5V5.816H2.68Z" transform="translate(-0.057 -1.771)"/><path class="e" d="M20.355,6.785V18.533H10.285V3.431L11.964,5.1l1.7,1.686Z" transform="translate(-0.217 -1.749)"/></svg>