<svg xmlns="http://www.w3.org/2000/svg" width="23.187" height="26.148" viewBox="0 0 23.187 26.148"><defs><style>.a{fill:#fedb41;}.b{fill:#fe9923;}.c{fill:#1ba9ef;}.d{fill:#1689fc;}.e{fill:#1de8f1;}.f{fill:#1bd9de;}</style></defs><path class="a" d="M24.224,16.078l-3.231-2.313a.778.778,0,0,0-.444-.153H5.356a.778.778,0,0,0-.444.153L1.68,16.078A.766.766,0,0,0,1.7,17.334l10.828,7.458a.736.736,0,0,0,.858,0l10.828-7.458A.766.766,0,0,0,24.224,16.078Z" transform="translate(-1.358 1.219)"/><path class="b" d="M23.257,17.334,12.429,24.792A.717.717,0,0,1,12,24.93V13.612h7.6a.778.778,0,0,1,.444.153l3.231,2.313A.766.766,0,0,1,23.257,17.334Z" transform="translate(-0.406 1.219)"/><path class="c" d="M24.224,11.767,20.992,9.454a.778.778,0,0,0-.444-.153H5.356a.778.778,0,0,0-.444.153L1.68,11.767a.774.774,0,0,0,0,1.256l10.828,7.611a.784.784,0,0,0,.888,0l10.828-7.611A.774.774,0,0,0,24.224,11.767Z" transform="translate(-1.358 0.832)"/><path class="d" d="M23.272,13.023,12.444,20.634a.8.8,0,0,1-.444.138V9.3h7.6a.778.778,0,0,1,.444.153l3.231,2.313A.774.774,0,0,1,23.272,13.023Z" transform="translate(-0.406 0.832)"/><path class="e" d="M24.224,7.9,13.4.138a.784.784,0,0,0-.888,0L1.68,7.9a.774.774,0,0,0,0,1.256L12.508,16.77a.784.784,0,0,0,.888,0L24.224,9.158A.774.774,0,0,0,24.224,7.9Z" transform="translate(-1.358)"/><path class="f" d="M23.272,9.158,12.444,16.77a.8.8,0,0,1-.444.138V0a.8.8,0,0,1,.444.138L23.272,7.9A.774.774,0,0,1,23.272,9.158Z" transform="translate(-0.406)"/></svg>