<svg xmlns="http://www.w3.org/2000/svg" width="221.192" height="185.539" viewBox="0 0 221.192 185.539"><defs><style>.a,.b,.d,.f{fill:#fff;}.a,.c,.e,.f{stroke:#18005a;stroke-linecap:round;stroke-linejoin:round;}.b,.d{opacity:0.3;}.b{mix-blend-mode:multiply;isolation:isolate;}.c,.e{fill:none;}.e{stroke-dasharray:2 4;}.f{stroke-width:1.263px;}</style></defs><g transform="translate(0.513 0.631)"><g transform="translate(42.339 8.043)"><path class="a" d="M266.33,328.483V210.22h6.241V328.483" transform="translate(-191.85 -152.118)"/><path class="a" d="M261,328.483V210.22h6.241V328.483" transform="translate(-189.637 -152.118)"/><rect class="b" width="6.241" height="14.039" transform="translate(71.363 58.102)"/><path class="a" d="M273.715,131.29H227.47L247.627,180.8h46.251V151.447a20.157,20.157,0,0,0-20.163-20.157Z" transform="translate(-175.72 -119.357)"/><path class="b" d="M255.9,185.491l3.51,8.669h46.269V164.808a12.523,12.523,0,0,0-.047-1.328h-49.72Z" transform="translate(-187.521 -132.718)"/><line class="c" x1="4.867" transform="translate(92.789 30.762)"/><line class="c" x1="14.729" transform="translate(103.382 30.762)"/><path class="a" d="M213.163,131.29h0a20.163,20.163,0,0,1,20.163,20.163v29.352H193V151.447A20.163,20.163,0,0,1,213.163,131.29Z" transform="translate(-161.413 -119.357)"/><rect class="a" width="34.745" height="3.34" transform="translate(37.161 58.102)"/><rect class="a" width="71.907" height="3.34" transform="translate(0 58.102)"/><rect class="d" width="34.745" height="3.34" transform="translate(37.161 58.102)"/><rect class="a" width="14.43" height="10.137" transform="translate(86.571)"/><rect class="a" width="3.118" height="31.587" transform="translate(84.623)"/><circle class="a" cx="3.51" cy="3.51" r="3.51" transform="translate(82.669 28.855)"/></g><path class="e" d="M198.34,145.15c8.142,4.135,22.3,10.763,35.354,14.1" transform="translate(-121.291 -117.067)"/><path class="e" d="M186.66,139s2.609,1.474,6.832,3.621" transform="translate(-116.443 -114.514)"/><path class="f" d="M155.676,121.409l5.855-13.91L119.07,97.14Z" transform="translate(-88.389 -97.14)"/><path class="f" d="M158.53,109.184l-2.854,12.225L119.07,97.14Z" transform="translate(-88.389 -97.14)"/><path class="f" d="M158.53,109.184l-6.662,5.709L119.07,97.14Z" transform="translate(-88.389 -97.14)"/><path class="f" d="M161.531,107.5l5.931-2.41L119.07,97.14Z" transform="translate(-88.389 -97.14)"/><line class="c" x2="1.375" y2="0.842" transform="translate(59.039 22.105)"/><line class="c" x2="4.603" y2="2.819" transform="translate(51.54 17.507)"/><path class="f" d="M145.89,173.446V158.36l43.157,6.937Z" transform="translate(-99.521 -122.55)"/><path class="f" d="M148,163l-2.112,12.371,43.157-8.148Z" transform="translate(-99.521 -124.476)"/><path class="f" d="M149.5,163l3.925,7.844,37.12-3.621Z" transform="translate(-101.019 -124.476)"/><path class="f" d="M142.677,155.147l-4.527-4.527,47.684,11.465Z" transform="translate(-96.308 -119.338)"/><line class="c" y1="0.76" x2="3.744" transform="translate(61.823 49.854)"/><line class="c" y1="1.913" x2="9.412" transform="translate(48.674 51.375)"/><path class="e" d="M107.787,182.56s-33.926,5.849-40.361,36.266S94.919,251,100.768,236.374,80.88,215.9,75.031,229.94s11.7,38.021,35.681,39.191c19.929.971,75.8-22.292,110.553-28.171,0,0,25.737-7.125,65.513-5.563" transform="translate(-66.619 -132.595)"/></g></svg>