<svg xmlns="http://www.w3.org/2000/svg" width="18.13" height="7.932" viewBox="0 0 18.13 7.932"><path d="M21.58,39.536l-1.427,1.9a.567.567,0,1,1-.906-.68l1.368-1.824a19.757,19.757,0,0,1-2.434-1.954.567.567,0,0,1,.773-.828c5.448,5.085,10.776,5.085,16.224,0a.567.567,0,0,1,.773.828,19.758,19.758,0,0,1-2.434,1.954l1.368,1.824a.567.567,0,0,1-.906.68l-1.427-1.9a12.951,12.951,0,0,1-1.861.882l.868,2.17a.567.567,0,1,1-1.052.421l-.9-2.245a10.039,10.039,0,0,1-1.975.318v2.283a.567.567,0,0,1-1.133,0V41.082a10.039,10.039,0,0,1-1.975-.318l-.9,2.245a.567.567,0,1,1-1.052-.421l.868-2.17a12.951,12.951,0,0,1-1.861-.882Z" transform="translate(-18 -36)"/></svg>